<?xml version="1.0" encoding="utf-8"?>
<!-- Generator: Adobe Illustrator 25.1.0, SVG Export Plug-In . SVG Version: 6.00 Build 0)  -->
<svg version="1.1" id="Layer_1" xmlns="http://www.w3.org/2000/svg" xmlns:xlink="http://www.w3.org/1999/xlink" x="0px" y="0px"
	 viewBox="0 0 260.33 43.67" style="enable-background:new 0 0 260.33 43.67;" xml:space="preserve">
<style type="text/css">
	.st0{opacity:0.25;}
	.st1{fill:#FFFFFF;}
</style>
<g class="st0">
	<path class="st1" d="M7.1,35.84v-0.08c0-0.12,0.04-0.16,0.2-0.2l0.36-0.08c0.56-0.12,0.64-0.24,0.64-0.67v-24.7
		c0-0.44-0.08-0.56-0.64-0.68L7.3,9.36c-0.16-0.04-0.2-0.08-0.2-0.2V9.08C7.1,9,7.14,8.96,7.22,8.96h5.12c3.3,0,4.84,1.71,4.84,5.32
		v2.26c0,2.62-1.03,4.25-3.18,4.76v0.08c1.71,0.67,2.66,2.22,2.9,5.28l0.64,7.74c0.08,0.71,0.36,0.95,0.87,1.07l0.36,0.08
		c0.16,0.04,0.2,0.08,0.2,0.2v0.08c0,0.08-0.04,0.12-0.12,0.12h-2.54c-0.24,0-0.36-0.16-0.4-0.32c-0.12-0.44-0.24-0.95-0.32-2.26
		l-0.56-6.83c-0.32-3.97-1.07-4.92-4.05-4.92H10.2v13.18c0,0.44,0.08,0.56,0.64,0.67l0.36,0.08c0.16,0.04,0.2,0.08,0.2,0.2v0.08
		c0,0.08-0.04,0.12-0.16,0.12H7.22C7.14,35.96,7.1,35.92,7.1,35.84z M11.98,20.95c2.46,0,3.29-0.99,3.29-3.69v-3.89
		c0-2.74-0.83-3.69-3.29-3.69H10.2v11.28H11.98z"/>
	<path class="st1" d="M18.77,35.84v-0.08c0-0.12,0.04-0.16,0.16-0.2l0.4-0.12c0.48-0.16,0.71-0.36,0.87-1.23l4.49-25.17
		c0.04-0.28,0.12-0.44,0.28-0.44h0.12c0.16,0,0.24,0.16,0.28,0.44l4.57,25.61c0.08,0.56,0.24,0.71,0.79,0.83l0.36,0.08
		c0.16,0.04,0.2,0.08,0.2,0.2v0.08c0,0.08-0.04,0.12-0.16,0.12h-4.05c-0.12,0-0.16-0.04-0.16-0.12v-0.08c0-0.12,0.04-0.16,0.2-0.2
		l0.36-0.08c0.4-0.08,0.56-0.2,0.56-0.44c0-0.08,0-0.12-0.04-0.32l-1.07-6.19h-4.96l-0.99,5.88c-0.04,0.2-0.04,0.24-0.04,0.32
		c0,0.36,0.2,0.6,0.64,0.71l0.4,0.12c0.12,0.04,0.16,0.08,0.16,0.2v0.08c0,0.08-0.04,0.12-0.16,0.12h-3.06
		C18.81,35.96,18.77,35.92,18.77,35.84z M26.75,27.86l-2.26-13.22h-0.08l-2.34,13.22H26.75z"/>
	<path class="st1" d="M41.32,35.96l-7.5-25.45h-0.08v23.86c0,0.71,0.12,0.91,0.64,1.07l0.4,0.12c0.12,0.04,0.16,0.08,0.16,0.2v0.08
		c0,0.08-0.04,0.12-0.16,0.12h-2.86c-0.08,0-0.12-0.04-0.12-0.12v-0.08c0-0.12,0.04-0.16,0.16-0.2l0.4-0.12
		c0.52-0.16,0.64-0.36,0.64-1.07V10.11c0-0.44-0.08-0.56-0.64-0.68l-0.36-0.08c-0.16-0.04-0.2-0.08-0.2-0.2V9.08
		c0-0.08,0.04-0.12,0.12-0.12h3.18c0.16,0,0.24,0.04,0.28,0.2l5.68,19.33h0.08V10.55c0-0.71-0.12-0.91-0.64-1.07l-0.4-0.12
		c-0.12-0.04-0.16-0.08-0.16-0.2V9.08c0-0.08,0.04-0.12,0.16-0.12h2.86c0.08,0,0.12,0.04,0.12,0.12v0.08c0,0.12-0.04,0.16-0.16,0.2
		l-0.4,0.12c-0.52,0.16-0.64,0.36-0.64,1.07v25.37c0,0.28-0.08,0.32-0.2,0.32h-0.12C41.44,36.24,41.4,36.2,41.32,35.96z"/>
	<path class="st1" d="M44.34,35.84v-0.08c0-0.12,0.04-0.16,0.2-0.2l0.36-0.08c0.56-0.12,0.64-0.24,0.64-0.67v-24.7
		c0-0.44-0.08-0.56-0.64-0.68l-0.36-0.08c-0.16-0.04-0.2-0.08-0.2-0.2V9.08c0-0.08,0.04-0.12,0.12-0.12h5.4
		c3.26,0,4.8,1.71,4.8,5.32v16.36c0,3.61-1.55,5.32-4.8,5.32h-5.4C44.38,35.96,44.34,35.92,44.34,35.84z M49.5,35.24
		c2.42,0,3.26-0.95,3.26-3.69V13.37c0-2.74-0.83-3.69-3.26-3.69h-2.06v25.01c0,0.44,0.2,0.56,0.75,0.56H49.5z"/>
	<path class="st1" d="M57.68,30.84V14.08c0-3.38,1.83-5.52,4.69-5.52c2.9,0,4.72,2.14,4.72,5.52v16.75c0,3.37-1.83,5.52-4.72,5.52
		C59.5,36.36,57.68,34.21,57.68,30.84z M65.18,31.79V13.13c0-2.74-0.79-3.85-2.82-3.85c-1.99,0-2.78,1.11-2.78,3.85v18.66
		c0,2.74,0.79,3.85,2.78,3.85C64.39,35.64,65.18,34.53,65.18,31.79z"/>
	<path class="st1" d="M69.27,35.84v-0.08c0-0.12,0.04-0.16,0.16-0.2l0.4-0.12c0.52-0.16,0.64-0.36,0.64-1.07V10.11
		c0-0.44-0.08-0.56-0.64-0.68l-0.36-0.08c-0.16-0.04-0.2-0.08-0.2-0.2V9.08c0-0.08,0.04-0.12,0.12-0.12h3.18
		c0.16,0,0.24,0.04,0.28,0.2l3.77,20.65h0.04l3.73-20.65c0.04-0.16,0.12-0.2,0.28-0.2h3.18c0.08,0,0.12,0.04,0.12,0.12v0.08
		c0,0.12-0.04,0.16-0.2,0.2L83.4,9.44c-0.56,0.12-0.64,0.24-0.64,0.68v24.7c0,0.44,0.08,0.56,0.64,0.67l0.36,0.08
		c0.16,0.04,0.2,0.08,0.2,0.2v0.08c0,0.08-0.04,0.12-0.12,0.12h-4.01c-0.12,0-0.16-0.04-0.16-0.12v-0.08c0-0.12,0.04-0.16,0.2-0.2
		l0.36-0.08c0.56-0.12,0.64-0.24,0.64-0.67V11.02h-0.08l-4.45,24.54c-0.04,0.28-0.12,0.4-0.24,0.4h-0.12c-0.12,0-0.2-0.12-0.24-0.4
		l-4.45-24.54h-0.08v23.35c0,0.71,0.12,0.91,0.64,1.07l0.4,0.12c0.12,0.04,0.16,0.08,0.16,0.2v0.08c0,0.08-0.04,0.12-0.16,0.12
		h-2.86C69.31,35.96,69.27,35.92,69.27,35.84z"/>
	<path class="st1" d="M89.63,35.84v-0.08c0-0.12,0.04-0.16,0.2-0.2l0.36-0.08c0.56-0.12,0.64-0.24,0.64-0.67v-24.7
		c0-0.44-0.08-0.56-0.64-0.68l-0.36-0.08c-0.16-0.04-0.2-0.08-0.2-0.2V9.08c0-0.08,0.04-0.12,0.12-0.12h5.4
		c3.26,0,4.8,1.71,4.8,5.32v16.36c0,3.61-1.55,5.32-4.8,5.32h-5.4C89.67,35.96,89.63,35.92,89.63,35.84z M94.8,35.24
		c2.42,0,3.26-0.95,3.26-3.69V13.37c0-2.74-0.83-3.69-3.26-3.69h-2.06v25.01c0,0.44,0.2,0.56,0.75,0.56H94.8z"/>
	<path class="st1" d="M102.1,35.84v-0.08c0-0.12,0.04-0.16,0.2-0.2l0.36-0.08c0.56-0.12,0.64-0.24,0.64-0.67v-24.7
		c0-0.44-0.08-0.56-0.64-0.68l-0.36-0.08c-0.16-0.04-0.2-0.08-0.2-0.2V9.08c0-0.08,0.04-0.12,0.12-0.12h5.12
		c3.3,0,4.84,1.71,4.84,5.32v2.26c0,2.62-1.03,4.25-3.18,4.76v0.08c1.71,0.67,2.66,2.22,2.9,5.28l0.64,7.74
		c0.08,0.71,0.36,0.95,0.87,1.07l0.36,0.08c0.16,0.04,0.2,0.08,0.2,0.2v0.08c0,0.08-0.04,0.12-0.12,0.12h-2.54
		c-0.24,0-0.36-0.16-0.4-0.32c-0.12-0.44-0.24-0.95-0.32-2.26l-0.56-6.83c-0.32-3.97-1.07-4.92-4.05-4.92h-0.79v13.18
		c0,0.44,0.08,0.56,0.64,0.67l0.36,0.08c0.16,0.04,0.2,0.08,0.2,0.2v0.08c0,0.08-0.04,0.12-0.16,0.12h-4.01
		C102.14,35.96,102.1,35.92,102.1,35.84z M106.98,20.95c2.46,0,3.29-0.99,3.29-3.69v-3.89c0-2.74-0.83-3.69-3.29-3.69h-1.79v11.28
		H106.98z"/>
	<path class="st1" d="M113.77,35.84v-0.08c0-0.12,0.04-0.16,0.16-0.2l0.4-0.12c0.48-0.16,0.71-0.36,0.87-1.23l4.49-25.17
		c0.04-0.28,0.12-0.44,0.28-0.44h0.12c0.16,0,0.24,0.16,0.28,0.44l4.57,25.61c0.08,0.56,0.24,0.71,0.79,0.83l0.36,0.08
		c0.16,0.04,0.2,0.08,0.2,0.2v0.08c0,0.08-0.04,0.12-0.16,0.12h-4.05c-0.12,0-0.16-0.04-0.16-0.12v-0.08c0-0.12,0.04-0.16,0.2-0.2
		l0.36-0.08c0.4-0.08,0.56-0.2,0.56-0.44c0-0.08,0-0.12-0.04-0.32l-1.07-6.19h-4.96l-0.99,5.88c-0.04,0.2-0.04,0.24-0.04,0.32
		c0,0.36,0.2,0.6,0.64,0.71l0.4,0.12c0.12,0.04,0.16,0.08,0.16,0.2v0.08c0,0.08-0.04,0.12-0.16,0.12h-3.06
		C113.81,35.96,113.77,35.92,113.77,35.84z M121.75,27.86l-2.26-13.22h-0.08l-2.34,13.22H121.75z"/>
	<path class="st1" d="M127.03,30.96V13.76c0-3.3,1.71-5.2,4.37-5.2c1.07,0,1.95,0.24,2.74,1.03c0.4,0.4,0.52,0.52,0.71,0.52
		c0.24,0,0.36-0.16,0.44-0.64l0.08-0.6c0.04-0.16,0.08-0.2,0.24-0.2h0.04c0.12,0,0.16,0.04,0.16,0.16v7.98
		c0,0.12-0.04,0.16-0.16,0.16h-0.04c-0.12,0-0.2-0.04-0.24-0.2l-0.32-2.22c-0.56-3.85-1.71-5.24-3.53-5.24
		c-1.71,0-2.58,1.11-2.58,3.38v19.22c0,2.66,0.75,3.73,2.74,3.73c1.95,0,2.7-1.07,2.7-3.73v-9.77c0-0.48-0.16-0.56-0.91-0.71
		l-0.67-0.16c-0.16-0.04-0.2-0.08-0.2-0.2v-0.08c0-0.08,0.04-0.12,0.16-0.12h4.17c0.08,0,0.12,0.04,0.12,0.12v0.08
		c0,0.12-0.04,0.16-0.16,0.2l-0.24,0.08c-0.4,0.12-0.44,0.24-0.44,0.67v14.06c0,0.08-0.04,0.16-0.16,0.16h-0.08
		c-0.12,0-0.16-0.04-0.2-0.2l-0.12-0.6c-0.08-0.52-0.16-0.67-0.4-0.67c-0.12,0-0.24,0.08-0.6,0.44c-0.71,0.71-1.79,1.15-2.98,1.15
		C128.82,36.36,127.03,34.25,127.03,30.96z"/>
	<path class="st1" d="M142.79,35.84v-0.08c0-0.12,0.04-0.16,0.2-0.2l0.36-0.08c0.56-0.12,0.64-0.24,0.64-0.67v-24.7
		c0-0.44-0.08-0.56-0.64-0.68l-0.36-0.08c-0.16-0.04-0.2-0.08-0.2-0.2V9.08c0-0.08,0.04-0.12,0.12-0.12h5.12
		c3.29,0,4.84,1.71,4.84,5.32v2.26c0,2.62-1.03,4.25-3.18,4.76v0.08c1.71,0.67,2.66,2.22,2.9,5.28l0.63,7.74
		c0.08,0.71,0.36,0.95,0.87,1.07l0.36,0.08c0.16,0.04,0.2,0.08,0.2,0.2v0.08c0,0.08-0.04,0.12-0.12,0.12H152
		c-0.24,0-0.36-0.16-0.4-0.32c-0.12-0.44-0.24-0.95-0.32-2.26l-0.56-6.83c-0.32-3.97-1.07-4.92-4.05-4.92h-0.79v13.18
		c0,0.44,0.08,0.56,0.64,0.67l0.36,0.08c0.16,0.04,0.2,0.08,0.2,0.2v0.08c0,0.08-0.04,0.12-0.16,0.12h-4.01
		C142.83,35.96,142.79,35.92,142.79,35.84z M147.68,20.95c2.46,0,3.29-0.99,3.29-3.69v-3.89c0-2.74-0.83-3.69-3.29-3.69h-1.79v11.28
		H147.68z"/>
	<path class="st1" d="M154.46,35.84v-0.08c0-0.12,0.04-0.16,0.16-0.2l0.4-0.12c0.48-0.16,0.71-0.36,0.88-1.23l4.49-25.17
		c0.04-0.28,0.12-0.44,0.28-0.44h0.12c0.16,0,0.24,0.16,0.28,0.44l4.57,25.61c0.08,0.56,0.24,0.71,0.79,0.83l0.36,0.08
		c0.16,0.04,0.2,0.08,0.2,0.2v0.08c0,0.08-0.04,0.12-0.16,0.12h-4.05c-0.12,0-0.16-0.04-0.16-0.12v-0.08c0-0.12,0.04-0.16,0.2-0.2
		l0.36-0.08c0.4-0.08,0.55-0.2,0.55-0.44c0-0.08,0-0.12-0.04-0.32l-1.07-6.19h-4.96l-0.99,5.88c-0.04,0.2-0.04,0.24-0.04,0.32
		c0,0.36,0.2,0.6,0.64,0.71l0.4,0.12c0.12,0.04,0.16,0.08,0.16,0.2v0.08c0,0.08-0.04,0.12-0.16,0.12h-3.06
		C154.5,35.96,154.46,35.92,154.46,35.84z M162.44,27.86l-2.26-13.22h-0.08l-2.34,13.22H162.44z"/>
	<path class="st1" d="M167.76,31.15V13.76c0-3.3,1.67-5.2,4.29-5.2c1.11,0,1.95,0.32,2.74,1.11c0.28,0.28,0.48,0.44,0.67,0.44
		c0.24,0,0.32-0.16,0.4-0.64l0.12-0.6c0.04-0.16,0.08-0.2,0.2-0.2h0.08c0.12,0,0.16,0.04,0.16,0.16v8.77c0,0.12-0.04,0.16-0.16,0.16
		h-0.08c-0.12,0-0.16-0.04-0.2-0.2l-0.44-2.9c-0.55-3.89-1.51-5.36-3.38-5.36c-1.67,0-2.5,1.11-2.5,3.38v19.53
		c0,2.3,0.87,3.38,2.7,3.38c2.26,0,3.53-1.59,3.53-4.57v-3.85c0-0.2,0.08-0.28,0.32-0.28h0.16c0.2,0,0.28,0.08,0.28,0.28v3.97
		c0,3.3-1.67,5.2-4.45,5.2C169.39,36.36,167.76,34.45,167.76,31.15z"/>
	<path class="st1" d="M178.28,35.84v-0.08c0-0.12,0.04-0.16,0.2-0.2l0.36-0.08c0.55-0.12,0.63-0.24,0.63-0.67v-24.7
		c0-0.44-0.08-0.56-0.63-0.68l-0.36-0.08c-0.16-0.04-0.2-0.08-0.2-0.2V9.08c0-0.08,0.04-0.12,0.12-0.12h9.29
		c0.2,0,0.28,0.08,0.28,0.28v5.68c0,0.12-0.04,0.16-0.16,0.16h-0.08c-0.12,0-0.16-0.04-0.2-0.2l-0.4-2.58
		c-0.32-2.06-0.87-2.62-2.74-2.62h-3.02v10.84h2.03c1.35,0,1.75-0.28,1.95-1.47l0.24-1.51c0.04-0.16,0.08-0.2,0.2-0.2h0.08
		c0.12,0,0.16,0.04,0.16,0.16v6.71c0,0.12-0.04,0.16-0.16,0.16h-0.08c-0.12,0-0.16-0.04-0.2-0.2l-0.24-1.51
		c-0.2-1.19-0.6-1.47-1.95-1.47h-2.03v13.5c0,0.44,0.2,0.56,0.75,0.56h2.26c2.06,0,2.78-0.64,3.14-3.02l0.4-2.58
		c0.04-0.16,0.08-0.2,0.2-0.2h0.08c0.12,0,0.16,0.04,0.16,0.16v6.07c0,0.2-0.08,0.28-0.28,0.28h-9.69
		C178.32,35.96,178.28,35.92,178.28,35.84z"/>
	<path class="st1" d="M208.18,38.78c-0.63,0.67-1.31,1.07-2.22,1.07c-1.43,0-2.42-0.79-3.46-3.02l-0.52-1.07
		c-0.63,0.4-1.43,0.6-2.34,0.6c-2.86,0-4.69-2.14-4.69-5.52V14.08c0-3.38,1.83-5.52,4.69-5.52c2.9,0,4.72,2.14,4.72,5.52v16.75
		c0,1.51-0.36,2.78-1.03,3.69l0.63,1.15c1.43,2.66,1.87,3.3,2.86,3.3c0.48,0,0.75-0.16,1.07-0.48c0.08-0.08,0.16-0.08,0.24,0
		l0.08,0.08C208.26,38.62,208.26,38.7,208.18,38.78z M196.86,13.13v17.31c0.52-0.6,1.19-0.87,2.02-0.87c1.51,0,2.26,0.91,3.38,2.98
		l0.16,0.28c0.04-0.32,0.04-0.67,0.04-1.03V13.13c0-2.74-0.79-3.85-2.82-3.85C197.66,9.28,196.86,10.39,196.86,13.13z M201.63,34.97
		l-0.6-1.27c-1.31-2.74-1.75-3.33-2.66-3.33c-0.67,0-1.15,0.32-1.51,0.99v0.44c0,2.74,0.79,3.85,2.78,3.85
		C200.51,35.64,201.19,35.44,201.63,34.97z"/>
	<path class="st1" d="M207.62,31.27V10.11c0-0.44-0.08-0.56-0.63-0.68l-0.36-0.08c-0.16-0.04-0.2-0.08-0.2-0.2V9.08
		c0-0.08,0.04-0.12,0.16-0.12h4.01c0.08,0,0.12,0.04,0.12,0.12v0.08c0,0.12-0.04,0.16-0.2,0.2l-0.36,0.08
		c-0.55,0.12-0.63,0.24-0.63,0.68v22.19c0,2.22,0.87,3.3,2.7,3.3c2.11,0,3.38-1.63,3.38-4.53V10.55c0-0.71-0.12-0.91-0.63-1.07
		l-0.4-0.12c-0.12-0.04-0.16-0.08-0.16-0.2V9.08c0-0.08,0.04-0.12,0.12-0.12h2.86c0.12,0,0.16,0.04,0.16,0.12v0.08
		c0,0.12-0.04,0.16-0.16,0.2l-0.4,0.12c-0.52,0.16-0.64,0.36-0.64,1.07v20.72c0,3.22-1.63,5.08-4.37,5.08
		C209.25,36.36,207.62,34.49,207.62,31.27z"/>
	<path class="st1" d="M219.61,30.84V14.08c0-3.38,1.83-5.52,4.69-5.52c2.9,0,4.72,2.14,4.72,5.52v16.75c0,3.37-1.83,5.52-4.72,5.52
		C221.44,36.36,219.61,34.21,219.61,30.84z M227.11,31.79V13.13c0-2.74-0.79-3.85-2.82-3.85c-1.98,0-2.78,1.11-2.78,3.85v18.66
		c0,2.74,0.79,3.85,2.78,3.85C226.32,35.64,227.11,34.53,227.11,31.79z"/>
	<path class="st1" d="M233.43,35.84v-0.08c0-0.12,0.04-0.16,0.2-0.2l0.6-0.12c0.83-0.16,0.99-0.28,0.99-0.75V9.67h-0.95
		c-1.87,0-2.14,0.67-2.58,3.42l-0.4,2.58c-0.04,0.16-0.08,0.2-0.2,0.2H231c-0.12,0-0.16-0.04-0.16-0.16V9.24
		c0-0.2,0.08-0.28,0.28-0.28h10.04c0.2,0,0.32,0.08,0.32,0.28v6.47c0,0.12-0.08,0.16-0.16,0.16h-0.08c-0.12,0-0.16-0.04-0.2-0.2
		l-0.4-2.58c-0.44-2.74-0.71-3.42-2.58-3.42h-0.95v25.01c0,0.48,0.16,0.6,0.99,0.75l0.6,0.12c0.16,0.04,0.2,0.08,0.2,0.2v0.08
		c0,0.08-0.04,0.12-0.16,0.12h-5.2C233.46,35.96,233.43,35.92,233.43,35.84z"/>
	<path class="st1" d="M242.44,35.84v-0.08c0-0.12,0.04-0.16,0.2-0.2l0.36-0.08c0.56-0.12,0.64-0.24,0.64-0.67v-24.7
		c0-0.44-0.08-0.56-0.64-0.68l-0.36-0.08c-0.16-0.04-0.2-0.08-0.2-0.2V9.08c0-0.08,0.04-0.12,0.12-0.12h9.29
		c0.2,0,0.28,0.08,0.28,0.28v5.68c0,0.12-0.04,0.16-0.16,0.16h-0.08c-0.12,0-0.16-0.04-0.2-0.2l-0.4-2.58
		c-0.32-2.06-0.87-2.62-2.74-2.62h-3.02v10.84h2.03c1.35,0,1.75-0.28,1.95-1.47l0.24-1.51c0.04-0.16,0.08-0.2,0.2-0.2h0.08
		c0.12,0,0.16,0.04,0.16,0.16v6.71c0,0.12-0.04,0.16-0.16,0.16h-0.08c-0.12,0-0.16-0.04-0.2-0.2l-0.24-1.51
		c-0.2-1.19-0.6-1.47-1.95-1.47h-2.03v13.5c0,0.44,0.2,0.56,0.76,0.56h2.26c2.06,0,2.78-0.64,3.14-3.02l0.4-2.58
		c0.04-0.16,0.08-0.2,0.2-0.2h0.08c0.12,0,0.16,0.04,0.16,0.16v6.07c0,0.2-0.08,0.28-0.28,0.28h-9.69
		C242.48,35.96,242.44,35.92,242.44,35.84z"/>
</g>
</svg>
